<svg xmlns="http://www.w3.org/2000/svg" xmlns:xlink="http://www.w3.org/1999/xlink" width="500" zoomAndPan="magnify" viewBox="0 0 375 374.999991" height="500" preserveAspectRatio="xMidYMid meet" version="1.0"><defs><g/></defs><rect x="-37.5" width="450" fill="#ffffff" y="-37.499999" height="449.999989" fill-opacity="1"/><rect x="-37.5" width="450" fill="#ffffff" y="-37.499999" height="449.999989" fill-opacity="1"/><rect x="-37.5" width="450" fill="#ffffff" y="-37.499999" height="449.999989" fill-opacity="1"/><g fill="#000000" fill-opacity="1"><g transform="translate(49.710939, 177.749988)"><g><path d="M 14.828125 -16.078125 C 14.828125 -14.773438 14.429688 -13.671875 13.640625 -12.765625 C 12.859375 -11.859375 11.757812 -11.238281 10.34375 -10.90625 L 10.34375 -10.8125 C 12.019531 -10.601562 13.285156 -10.09375 14.140625 -9.28125 C 15.003906 -8.476562 15.4375 -7.394531 15.4375 -6.03125 C 15.4375 -4.039062 14.710938 -2.488281 13.265625 -1.375 C 11.828125 -0.269531 9.765625 0.28125 7.078125 0.28125 C 4.828125 0.28125 2.835938 -0.0859375 1.109375 -0.828125 L 1.109375 -4.5625 C 1.910156 -4.15625 2.789062 -3.820312 3.75 -3.5625 C 4.71875 -3.3125 5.671875 -3.1875 6.609375 -3.1875 C 8.054688 -3.1875 9.125 -3.429688 9.8125 -3.921875 C 10.5 -4.410156 10.84375 -5.195312 10.84375 -6.28125 C 10.84375 -7.257812 10.445312 -7.953125 9.65625 -8.359375 C 8.863281 -8.765625 7.597656 -8.96875 5.859375 -8.96875 L 4.296875 -8.96875 L 4.296875 -12.3125 L 5.890625 -12.3125 C 7.492188 -12.3125 8.664062 -12.519531 9.40625 -12.9375 C 10.144531 -13.363281 10.515625 -14.085938 10.515625 -15.109375 C 10.515625 -16.671875 9.535156 -17.453125 7.578125 -17.453125 C 6.898438 -17.453125 6.207031 -17.335938 5.5 -17.109375 C 4.800781 -16.890625 4.019531 -16.5 3.15625 -15.9375 L 1.140625 -18.953125 C 3.023438 -20.316406 5.273438 -21 7.890625 -21 C 10.035156 -21 11.726562 -20.5625 12.96875 -19.6875 C 14.207031 -18.820312 14.828125 -17.617188 14.828125 -16.078125 Z M 14.828125 -16.078125 "/></g></g></g><g fill="#000000" fill-opacity="1"><g transform="translate(66.259701, 177.749988)"><g><path d="M 19.78125 -10.546875 C 19.78125 -7.140625 18.8125 -4.53125 16.875 -2.71875 C 14.9375 -0.90625 12.132812 0 8.46875 0 L 2.609375 0 L 2.609375 -20.703125 L 9.109375 -20.703125 C 12.484375 -20.703125 15.101562 -19.804688 16.96875 -18.015625 C 18.84375 -16.234375 19.78125 -13.742188 19.78125 -10.546875 Z M 15.21875 -10.4375 C 15.21875 -14.882812 13.253906 -17.109375 9.328125 -17.109375 L 7 -17.109375 L 7 -3.625 L 8.875 -3.625 C 13.101562 -3.625 15.21875 -5.894531 15.21875 -10.4375 Z M 15.21875 -10.4375 "/></g></g></g><g fill="#000000" fill-opacity="1"><g transform="translate(87.720713, 177.749988)"><g/></g></g><g fill="#000000" fill-opacity="1"><g transform="translate(95.251887, 177.749988)"><g><path d="M 11.375 0 L 6.390625 -16.234375 L 6.265625 -16.234375 C 6.441406 -12.929688 6.53125 -10.726562 6.53125 -9.625 L 6.53125 0 L 2.609375 0 L 2.609375 -20.703125 L 8.578125 -20.703125 L 13.484375 -4.875 L 13.5625 -4.875 L 18.765625 -20.703125 L 24.734375 -20.703125 L 24.734375 0 L 20.640625 0 L 20.640625 -9.796875 C 20.640625 -10.265625 20.644531 -10.800781 20.65625 -11.40625 C 20.675781 -12.007812 20.742188 -13.613281 20.859375 -16.21875 L 20.734375 -16.21875 L 15.390625 0 Z M 11.375 0 "/></g></g></g><g fill="#000000" fill-opacity="1"><g transform="translate(122.587781, 177.749988)"><g><path d="M 5.703125 -7.9375 C 5.703125 -6.375 5.957031 -5.191406 6.46875 -4.390625 C 6.988281 -3.585938 7.828125 -3.1875 8.984375 -3.1875 C 10.140625 -3.1875 10.96875 -3.582031 11.46875 -4.375 C 11.976562 -5.175781 12.234375 -6.363281 12.234375 -7.9375 C 12.234375 -9.507812 11.976562 -10.6875 11.46875 -11.46875 C 10.957031 -12.25 10.125 -12.640625 8.96875 -12.640625 C 7.8125 -12.640625 6.976562 -12.25 6.46875 -11.46875 C 5.957031 -10.695312 5.703125 -9.519531 5.703125 -7.9375 Z M 16.65625 -7.9375 C 16.65625 -5.363281 15.972656 -3.347656 14.609375 -1.890625 C 13.253906 -0.441406 11.363281 0.28125 8.9375 0.28125 C 7.414062 0.28125 6.070312 -0.0507812 4.90625 -0.71875 C 3.75 -1.382812 2.859375 -2.335938 2.234375 -3.578125 C 1.609375 -4.828125 1.296875 -6.28125 1.296875 -7.9375 C 1.296875 -10.53125 1.972656 -12.539062 3.328125 -13.96875 C 4.679688 -15.40625 6.578125 -16.125 9.015625 -16.125 C 10.535156 -16.125 11.875 -15.789062 13.03125 -15.125 C 14.195312 -14.46875 15.09375 -13.519531 15.71875 -12.28125 C 16.34375 -11.050781 16.65625 -9.601562 16.65625 -7.9375 Z M 16.65625 -7.9375 "/></g></g></g><g fill="#000000" fill-opacity="1"><g transform="translate(140.538021, 177.749988)"><g><path d="M 12.171875 -3.15625 L 12.171875 -12.59375 L 8.9375 -12.59375 C 8.695312 -10.832031 8.367188 -9.160156 7.953125 -7.578125 C 7.546875 -6.003906 6.984375 -4.53125 6.265625 -3.15625 Z M 18.8125 5.671875 L 14.9375 5.671875 L 14.9375 0 L 4.296875 0 L 4.296875 5.671875 L 0.40625 5.671875 L 0.40625 -3.15625 L 1.734375 -3.15625 C 2.640625 -4.5625 3.398438 -6.335938 4.015625 -8.484375 C 4.628906 -10.628906 5.0625 -13.078125 5.3125 -15.828125 L 16.5 -15.828125 L 16.5 -3.15625 L 18.8125 -3.15625 Z M 18.8125 5.671875 "/></g></g></g><g fill="#000000" fill-opacity="1"><g transform="translate(159.790644, 177.749988)"><g><path d="M 8.828125 -13.0625 C 7.910156 -13.0625 7.191406 -12.769531 6.671875 -12.1875 C 6.148438 -11.601562 5.851562 -10.78125 5.78125 -9.71875 L 11.84375 -9.71875 C 11.820312 -10.78125 11.539062 -11.601562 11 -12.1875 C 10.46875 -12.769531 9.742188 -13.0625 8.828125 -13.0625 Z M 9.4375 0.28125 C 6.882812 0.28125 4.890625 -0.421875 3.453125 -1.828125 C 2.015625 -3.234375 1.296875 -5.222656 1.296875 -7.796875 C 1.296875 -10.453125 1.957031 -12.503906 3.28125 -13.953125 C 4.613281 -15.398438 6.453125 -16.125 8.796875 -16.125 C 11.035156 -16.125 12.773438 -15.488281 14.015625 -14.21875 C 15.265625 -12.945312 15.890625 -11.1875 15.890625 -8.9375 L 15.890625 -6.84375 L 5.671875 -6.84375 C 5.722656 -5.613281 6.085938 -4.65625 6.765625 -3.96875 C 7.441406 -3.28125 8.394531 -2.9375 9.625 -2.9375 C 10.582031 -2.9375 11.484375 -3.035156 12.328125 -3.234375 C 13.179688 -3.429688 14.070312 -3.742188 15 -4.171875 L 15 -0.828125 C 14.238281 -0.453125 13.425781 -0.175781 12.5625 0 C 11.707031 0.1875 10.664062 0.28125 9.4375 0.28125 Z M 9.4375 0.28125 "/></g></g></g><g fill="#000000" fill-opacity="1"><g transform="translate(176.919816, 177.749988)"><g><path d="M 16.4375 0 L 12.125 0 L 12.125 -12.59375 L 8.140625 -12.59375 C 7.835938 -9.050781 7.46875 -6.40625 7.03125 -4.65625 C 6.601562 -2.914062 6.023438 -1.65625 5.296875 -0.875 C 4.578125 -0.101562 3.632812 0.28125 2.46875 0.28125 C 1.46875 0.28125 0.644531 0.128906 0 -0.171875 L 0 -3.625 C 0.457031 -3.4375 0.921875 -3.34375 1.390625 -3.34375 C 1.921875 -3.34375 2.367188 -3.726562 2.734375 -4.5 C 3.097656 -5.28125 3.425781 -6.570312 3.71875 -8.375 C 4.007812 -10.1875 4.253906 -12.671875 4.453125 -15.828125 L 16.4375 -15.828125 Z M 16.4375 0 "/></g></g></g><g fill="#000000" fill-opacity="1"><g transform="translate(195.620342, 177.749988)"><g><path d="M 6.578125 -9.71875 L 9.625 -9.71875 C 12.0625 -9.71875 13.863281 -9.328125 15.03125 -8.546875 C 16.207031 -7.773438 16.796875 -6.609375 16.796875 -5.046875 C 16.796875 -1.679688 14.460938 0 9.796875 0 L 2.265625 0 L 2.265625 -15.828125 L 6.578125 -15.828125 Z M 12.46875 -4.984375 C 12.46875 -5.597656 12.222656 -6.039062 11.734375 -6.3125 C 11.242188 -6.582031 10.515625 -6.71875 9.546875 -6.71875 L 6.578125 -6.71875 L 6.578125 -2.984375 L 9.59375 -2.984375 C 11.507812 -2.984375 12.46875 -3.648438 12.46875 -4.984375 Z M 12.46875 -4.984375 "/></g></g></g><g fill="#000000" fill-opacity="1"><g transform="translate(213.414862, 177.749988)"><g/></g></g><g fill="#000000" fill-opacity="1"><g transform="translate(220.946035, 177.749988)"><g><path d="M 8.6875 0.28125 C 3.757812 0.28125 1.296875 -2.421875 1.296875 -7.828125 C 1.296875 -10.515625 1.96875 -12.566406 3.3125 -13.984375 C 4.65625 -15.410156 6.578125 -16.125 9.078125 -16.125 C 10.910156 -16.125 12.550781 -15.765625 14 -15.046875 L 12.734375 -11.703125 C 12.046875 -11.984375 11.410156 -12.207031 10.828125 -12.375 C 10.242188 -12.550781 9.660156 -12.640625 9.078125 -12.640625 C 6.828125 -12.640625 5.703125 -11.046875 5.703125 -7.859375 C 5.703125 -4.765625 6.828125 -3.21875 9.078125 -3.21875 C 9.910156 -3.21875 10.679688 -3.328125 11.390625 -3.546875 C 12.097656 -3.765625 12.804688 -4.113281 13.515625 -4.59375 L 13.515625 -0.890625 C 12.816406 -0.453125 12.109375 -0.148438 11.390625 0.015625 C 10.679688 0.191406 9.78125 0.28125 8.6875 0.28125 Z M 8.6875 0.28125 "/></g></g></g><g fill="#000000" fill-opacity="1"><g transform="translate(235.852662, 177.749988)"><g><path d="M 8.828125 -13.0625 C 7.910156 -13.0625 7.191406 -12.769531 6.671875 -12.1875 C 6.148438 -11.601562 5.851562 -10.78125 5.78125 -9.71875 L 11.84375 -9.71875 C 11.820312 -10.78125 11.539062 -11.601562 11 -12.1875 C 10.46875 -12.769531 9.742188 -13.0625 8.828125 -13.0625 Z M 9.4375 0.28125 C 6.882812 0.28125 4.890625 -0.421875 3.453125 -1.828125 C 2.015625 -3.234375 1.296875 -5.222656 1.296875 -7.796875 C 1.296875 -10.453125 1.957031 -12.503906 3.28125 -13.953125 C 4.613281 -15.398438 6.453125 -16.125 8.796875 -16.125 C 11.035156 -16.125 12.773438 -15.488281 14.015625 -14.21875 C 15.265625 -12.945312 15.890625 -11.1875 15.890625 -8.9375 L 15.890625 -6.84375 L 5.671875 -6.84375 C 5.722656 -5.613281 6.085938 -4.65625 6.765625 -3.96875 C 7.441406 -3.28125 8.394531 -2.9375 9.625 -2.9375 C 10.582031 -2.9375 11.484375 -3.035156 12.328125 -3.234375 C 13.179688 -3.429688 14.070312 -3.742188 15 -4.171875 L 15 -0.828125 C 14.238281 -0.453125 13.425781 -0.175781 12.5625 0 C 11.707031 0.1875 10.664062 0.28125 9.4375 0.28125 Z M 9.4375 0.28125 "/></g></g></g><g fill="#000000" fill-opacity="1"><g transform="translate(252.981846, 177.749988)"><g><path d="M 6.4375 -15.828125 L 6.4375 -9.578125 C 6.4375 -8.910156 6.332031 -7.296875 6.125 -4.734375 L 13.421875 -15.828125 L 18.625 -15.828125 L 18.625 0 L 14.4375 0 L 14.4375 -6.3125 C 14.4375 -7.4375 14.535156 -9.023438 14.734375 -11.078125 L 7.453125 0 L 2.265625 0 L 2.265625 -15.828125 Z M 17.34375 -22.640625 C 17.164062 -20.878906 16.5 -19.59375 15.34375 -18.78125 C 14.195312 -17.976562 12.535156 -17.578125 10.359375 -17.578125 C 8.128906 -17.578125 6.476562 -17.960938 5.40625 -18.734375 C 4.332031 -19.503906 3.726562 -20.804688 3.59375 -22.640625 L 7.46875 -22.640625 C 7.53125 -21.671875 7.769531 -20.988281 8.1875 -20.59375 C 8.613281 -20.207031 9.367188 -20.015625 10.453125 -20.015625 C 11.398438 -20.015625 12.109375 -20.226562 12.578125 -20.65625 C 13.046875 -21.082031 13.332031 -21.742188 13.4375 -22.640625 Z M 17.34375 -22.640625 "/></g></g></g><g fill="#000000" fill-opacity="1"><g transform="translate(273.862459, 177.749988)"><g><path d="M 6.0625 -15.828125 L 6.0625 -10.046875 C 6.0625 -8.660156 6.695312 -7.96875 7.96875 -7.96875 C 8.800781 -7.96875 9.570312 -8.0625 10.28125 -8.25 C 11 -8.4375 11.722656 -8.679688 12.453125 -8.984375 L 12.453125 -15.828125 L 16.765625 -15.828125 L 16.765625 0 L 12.453125 0 L 12.453125 -6.28125 C 11.453125 -5.757812 10.519531 -5.390625 9.65625 -5.171875 C 8.800781 -4.953125 7.972656 -4.84375 7.171875 -4.84375 C 5.441406 -4.84375 4.101562 -5.28125 3.15625 -6.15625 C 2.207031 -7.039062 1.734375 -8.300781 1.734375 -9.9375 L 1.734375 -15.828125 Z M 6.0625 -15.828125 "/></g></g></g><g fill="#000000" fill-opacity="1"><g transform="translate(292.874436, 177.749988)"><g><path d="M 12.3125 0 L 11.484375 -2.15625 L 11.375 -2.15625 C 10.644531 -1.238281 9.894531 -0.601562 9.125 -0.25 C 8.351562 0.101562 7.351562 0.28125 6.125 0.28125 C 4.601562 0.28125 3.40625 -0.148438 2.53125 -1.015625 C 1.65625 -1.890625 1.21875 -3.128906 1.21875 -4.734375 C 1.21875 -6.410156 1.804688 -7.644531 2.984375 -8.4375 C 4.160156 -9.238281 5.929688 -9.679688 8.296875 -9.765625 L 11.046875 -9.859375 L 11.046875 -10.546875 C 11.046875 -12.148438 10.222656 -12.953125 8.578125 -12.953125 C 7.316406 -12.953125 5.832031 -12.570312 4.125 -11.8125 L 2.6875 -14.734375 C 4.507812 -15.679688 6.53125 -16.15625 8.75 -16.15625 C 10.875 -16.15625 12.5 -15.691406 13.625 -14.765625 C 14.757812 -13.835938 15.328125 -12.429688 15.328125 -10.546875 L 15.328125 0 Z M 11.046875 -7.328125 L 9.375 -7.28125 C 8.113281 -7.238281 7.175781 -7.007812 6.5625 -6.59375 C 5.957031 -6.175781 5.65625 -5.546875 5.65625 -4.703125 C 5.65625 -3.484375 6.351562 -2.875 7.75 -2.875 C 8.75 -2.875 9.546875 -3.160156 10.140625 -3.734375 C 10.742188 -4.316406 11.046875 -5.082031 11.046875 -6.03125 Z M 11.046875 -7.328125 "/></g></g></g><g fill="#000000" fill-opacity="1"><g transform="translate(310.385818, 177.749988)"><g><path d="M 8.6875 0.28125 C 3.757812 0.28125 1.296875 -2.421875 1.296875 -7.828125 C 1.296875 -10.515625 1.96875 -12.566406 3.3125 -13.984375 C 4.65625 -15.410156 6.578125 -16.125 9.078125 -16.125 C 10.910156 -16.125 12.550781 -15.765625 14 -15.046875 L 12.734375 -11.703125 C 12.046875 -11.984375 11.410156 -12.207031 10.828125 -12.375 C 10.242188 -12.550781 9.660156 -12.640625 9.078125 -12.640625 C 6.828125 -12.640625 5.703125 -11.046875 5.703125 -7.859375 C 5.703125 -4.765625 6.828125 -3.21875 9.078125 -3.21875 C 9.910156 -3.21875 10.679688 -3.328125 11.390625 -3.546875 C 12.097656 -3.765625 12.804688 -4.113281 13.515625 -4.59375 L 13.515625 -0.890625 C 12.816406 -0.453125 12.109375 -0.148438 11.390625 0.015625 C 10.679688 0.191406 9.78125 0.28125 8.6875 0.28125 Z M 8.6875 0.28125 "/></g></g></g><g fill="#000000" fill-opacity="1"><g transform="translate(91.39453, 218.249986)"><g><path d="M 6.203125 -9.75 C 7.835938 -9.75 8.992188 -9.878906 9.671875 -10.140625 C 10.359375 -10.398438 10.703125 -10.820312 10.703125 -11.40625 C 10.703125 -11.90625 10.453125 -12.28125 9.953125 -12.53125 C 9.453125 -12.789062 8.628906 -12.921875 7.484375 -12.921875 C 6.753906 -12.921875 5.925781 -12.832031 5 -12.65625 C 4.082031 -12.476562 3.25 -12.234375 2.5 -11.921875 L 1.21875 -14.9375 C 2.34375 -15.363281 3.429688 -15.664062 4.484375 -15.84375 C 5.546875 -16.03125 6.726562 -16.125 8.03125 -16.125 C 10 -16.125 11.578125 -15.742188 12.765625 -14.984375 C 13.960938 -14.234375 14.5625 -13.210938 14.5625 -11.921875 C 14.5625 -10.140625 13.507812 -8.976562 11.40625 -8.4375 L 11.40625 -8.296875 C 12.695312 -7.972656 13.617188 -7.515625 14.171875 -6.921875 C 14.722656 -6.335938 15 -5.566406 15 -4.609375 C 15 -3.648438 14.6875 -2.796875 14.0625 -2.046875 C 13.4375 -1.304688 12.535156 -0.734375 11.359375 -0.328125 C 10.179688 0.078125 8.789062 0.28125 7.1875 0.28125 C 4.550781 0.28125 2.523438 -0.0390625 1.109375 -0.6875 L 1.109375 -4.265625 C 1.921875 -3.890625 2.804688 -3.59375 3.765625 -3.375 C 4.734375 -3.15625 5.671875 -3.046875 6.578125 -3.046875 C 7.984375 -3.046875 9.035156 -3.203125 9.734375 -3.515625 C 10.441406 -3.835938 10.796875 -4.289062 10.796875 -4.875 C 10.796875 -5.507812 10.425781 -5.976562 9.6875 -6.28125 C 8.945312 -6.59375 7.8125 -6.75 6.28125 -6.75 L 4.609375 -6.75 L 4.609375 -9.75 Z M 6.203125 -9.75 "/></g></g></g><g fill="#000000" fill-opacity="1"><g transform="translate(107.490289, 218.249986)"><g><path d="M 12.3125 0 L 11.484375 -2.15625 L 11.375 -2.15625 C 10.644531 -1.238281 9.894531 -0.601562 9.125 -0.25 C 8.351562 0.101562 7.351562 0.28125 6.125 0.28125 C 4.601562 0.28125 3.40625 -0.148438 2.53125 -1.015625 C 1.65625 -1.890625 1.21875 -3.128906 1.21875 -4.734375 C 1.21875 -6.410156 1.804688 -7.644531 2.984375 -8.4375 C 4.160156 -9.238281 5.929688 -9.679688 8.296875 -9.765625 L 11.046875 -9.859375 L 11.046875 -10.546875 C 11.046875 -12.148438 10.222656 -12.953125 8.578125 -12.953125 C 7.316406 -12.953125 5.832031 -12.570312 4.125 -11.8125 L 2.6875 -14.734375 C 4.507812 -15.679688 6.53125 -16.15625 8.75 -16.15625 C 10.875 -16.15625 12.5 -15.691406 13.625 -14.765625 C 14.757812 -13.835938 15.328125 -12.429688 15.328125 -10.546875 L 15.328125 0 Z M 11.046875 -7.328125 L 9.375 -7.28125 C 8.113281 -7.238281 7.175781 -7.007812 6.5625 -6.59375 C 5.957031 -6.175781 5.65625 -5.546875 5.65625 -4.703125 C 5.65625 -3.484375 6.351562 -2.875 7.75 -2.875 C 8.75 -2.875 9.546875 -3.160156 10.140625 -3.734375 C 10.742188 -4.316406 11.046875 -5.082031 11.046875 -6.03125 Z M 11.046875 -7.328125 "/></g></g></g><g fill="#000000" fill-opacity="1"><g transform="translate(125.001683, 218.249986)"><g><path d="M 13.203125 -15.828125 L 13.203125 -12.59375 L 6.578125 -12.59375 L 6.578125 0 L 2.265625 0 L 2.265625 -15.828125 Z M 13.203125 -15.828125 "/></g></g></g><g fill="#000000" fill-opacity="1"><g transform="translate(138.86074, 218.249986)"><g><path d="M 10.953125 0.28125 C 9.097656 0.28125 7.640625 -0.390625 6.578125 -1.734375 L 6.359375 -1.734375 C 6.503906 -0.421875 6.578125 0.335938 6.578125 0.546875 L 6.578125 6.96875 L 2.265625 6.96875 L 2.265625 -15.828125 L 5.78125 -15.828125 L 6.390625 -13.78125 L 6.578125 -13.78125 C 7.585938 -15.34375 9.085938 -16.125 11.078125 -16.125 C 12.941406 -16.125 14.398438 -15.398438 15.453125 -13.953125 C 16.515625 -12.515625 17.046875 -10.507812 17.046875 -7.9375 C 17.046875 -6.25 16.796875 -4.78125 16.296875 -3.53125 C 15.804688 -2.289062 15.101562 -1.34375 14.1875 -0.6875 C 13.269531 -0.0390625 12.191406 0.28125 10.953125 0.28125 Z M 9.6875 -12.671875 C 8.613281 -12.671875 7.832031 -12.34375 7.34375 -11.6875 C 6.851562 -11.03125 6.597656 -9.945312 6.578125 -8.4375 L 6.578125 -7.96875 C 6.578125 -6.269531 6.828125 -5.050781 7.328125 -4.3125 C 7.835938 -3.582031 8.644531 -3.21875 9.75 -3.21875 C 11.675781 -3.21875 12.640625 -4.8125 12.640625 -8 C 12.640625 -9.5625 12.398438 -10.726562 11.921875 -11.5 C 11.453125 -12.28125 10.707031 -12.671875 9.6875 -12.671875 Z M 9.6875 -12.671875 "/></g></g></g><g fill="#000000" fill-opacity="1"><g transform="translate(157.207358, 218.249986)"><g><path d="M 0 -15.828125 L 4.734375 -15.828125 L 7.71875 -6.921875 C 7.96875 -6.148438 8.140625 -5.234375 8.234375 -4.171875 L 8.328125 -4.171875 C 8.429688 -5.148438 8.632812 -6.066406 8.9375 -6.921875 L 11.859375 -15.828125 L 16.5 -15.828125 L 9.796875 2.03125 C 9.179688 3.675781 8.304688 4.910156 7.171875 5.734375 C 6.035156 6.554688 4.707031 6.96875 3.1875 6.96875 C 2.4375 6.96875 1.703125 6.882812 0.984375 6.71875 L 0.984375 3.296875 C 1.503906 3.421875 2.070312 3.484375 2.6875 3.484375 C 3.457031 3.484375 4.125 3.25 4.6875 2.78125 C 5.257812 2.3125 5.707031 1.609375 6.03125 0.671875 L 6.28125 -0.109375 Z M 0 -15.828125 "/></g></g></g><g fill="#000000" fill-opacity="1"><g transform="translate(173.699494, 218.249986)"><g><path d="M 6.203125 -9.75 C 7.835938 -9.75 8.992188 -9.878906 9.671875 -10.140625 C 10.359375 -10.398438 10.703125 -10.820312 10.703125 -11.40625 C 10.703125 -11.90625 10.453125 -12.28125 9.953125 -12.53125 C 9.453125 -12.789062 8.628906 -12.921875 7.484375 -12.921875 C 6.753906 -12.921875 5.925781 -12.832031 5 -12.65625 C 4.082031 -12.476562 3.25 -12.234375 2.5 -11.921875 L 1.21875 -14.9375 C 2.34375 -15.363281 3.429688 -15.664062 4.484375 -15.84375 C 5.546875 -16.03125 6.726562 -16.125 8.03125 -16.125 C 10 -16.125 11.578125 -15.742188 12.765625 -14.984375 C 13.960938 -14.234375 14.5625 -13.210938 14.5625 -11.921875 C 14.5625 -10.140625 13.507812 -8.976562 11.40625 -8.4375 L 11.40625 -8.296875 C 12.695312 -7.972656 13.617188 -7.515625 14.171875 -6.921875 C 14.722656 -6.335938 15 -5.566406 15 -4.609375 C 15 -3.648438 14.6875 -2.796875 14.0625 -2.046875 C 13.4375 -1.304688 12.535156 -0.734375 11.359375 -0.328125 C 10.179688 0.078125 8.789062 0.28125 7.1875 0.28125 C 4.550781 0.28125 2.523438 -0.0390625 1.109375 -0.6875 L 1.109375 -4.265625 C 1.921875 -3.890625 2.804688 -3.59375 3.765625 -3.375 C 4.734375 -3.15625 5.671875 -3.046875 6.578125 -3.046875 C 7.984375 -3.046875 9.035156 -3.203125 9.734375 -3.515625 C 10.441406 -3.835938 10.796875 -4.289062 10.796875 -4.875 C 10.796875 -5.507812 10.425781 -5.976562 9.6875 -6.28125 C 8.945312 -6.59375 7.8125 -6.75 6.28125 -6.75 L 4.609375 -6.75 L 4.609375 -9.75 Z M 6.203125 -9.75 "/></g></g></g><g fill="#000000" fill-opacity="1"><g transform="translate(189.795254, 218.249986)"><g><path d="M 6.4375 -15.828125 L 6.4375 -9.578125 C 6.4375 -8.910156 6.332031 -7.296875 6.125 -4.734375 L 13.421875 -15.828125 L 18.625 -15.828125 L 18.625 0 L 14.4375 0 L 14.4375 -6.3125 C 14.4375 -7.4375 14.535156 -9.023438 14.734375 -11.078125 L 7.453125 0 L 2.265625 0 L 2.265625 -15.828125 Z M 6.4375 -15.828125 "/></g></g></g><g fill="#000000" fill-opacity="1"><g transform="translate(210.675856, 218.249986)"><g><path d="M 15.359375 -15.828125 L 15.359375 -12.59375 L 10.1875 -12.59375 L 10.1875 0 L 5.859375 0 L 5.859375 -12.59375 L 0.671875 -12.59375 L 0.671875 -15.828125 Z M 15.359375 -15.828125 "/></g></g></g><g fill="#000000" fill-opacity="1"><g transform="translate(226.71499, 218.249986)"><g><path d="M 8.6875 0.28125 C 3.757812 0.28125 1.296875 -2.421875 1.296875 -7.828125 C 1.296875 -10.515625 1.96875 -12.566406 3.3125 -13.984375 C 4.65625 -15.410156 6.578125 -16.125 9.078125 -16.125 C 10.910156 -16.125 12.550781 -15.765625 14 -15.046875 L 12.734375 -11.703125 C 12.046875 -11.984375 11.410156 -12.207031 10.828125 -12.375 C 10.242188 -12.550781 9.660156 -12.640625 9.078125 -12.640625 C 6.828125 -12.640625 5.703125 -11.046875 5.703125 -7.859375 C 5.703125 -4.765625 6.828125 -3.21875 9.078125 -3.21875 C 9.910156 -3.21875 10.679688 -3.328125 11.390625 -3.546875 C 12.097656 -3.765625 12.804688 -4.113281 13.515625 -4.59375 L 13.515625 -0.890625 C 12.816406 -0.453125 12.109375 -0.148438 11.390625 0.015625 C 10.679688 0.191406 9.78125 0.28125 8.6875 0.28125 Z M 8.6875 0.28125 "/></g></g></g><g fill="#000000" fill-opacity="1"><g transform="translate(241.621617, 218.249986)"><g><path d="M 4.671875 0 L 0 0 L 4.265625 -6.265625 C 3.242188 -6.679688 2.46875 -7.289062 1.9375 -8.09375 C 1.414062 -8.894531 1.15625 -9.84375 1.15625 -10.9375 C 1.15625 -12.457031 1.726562 -13.648438 2.875 -14.515625 C 4.03125 -15.390625 5.597656 -15.828125 7.578125 -15.828125 L 14.9375 -15.828125 L 14.9375 0 L 10.625 0 L 10.625 -5.890625 L 8.234375 -5.890625 Z M 5.390625 -10.90625 C 5.390625 -10.238281 5.648438 -9.71875 6.171875 -9.34375 C 6.691406 -8.976562 7.375 -8.796875 8.21875 -8.796875 L 10.625 -8.796875 L 10.625 -12.78125 L 7.65625 -12.78125 C 6.945312 -12.78125 6.390625 -12.609375 5.984375 -12.265625 C 5.585938 -11.921875 5.390625 -11.46875 5.390625 -10.90625 Z M 5.390625 -10.90625 "/></g></g></g><g fill="#000000" fill-opacity="1"><g transform="translate(258.807414, 218.249986)"><g><path d="M 1.65625 -2.03125 C 1.65625 -2.820312 1.867188 -3.421875 2.296875 -3.828125 C 2.722656 -4.234375 3.34375 -4.4375 4.15625 -4.4375 C 4.9375 -4.4375 5.539062 -4.226562 5.96875 -3.8125 C 6.394531 -3.394531 6.609375 -2.800781 6.609375 -2.03125 C 6.609375 -1.28125 6.390625 -0.691406 5.953125 -0.265625 C 5.523438 0.160156 4.925781 0.375 4.15625 0.375 C 3.351562 0.375 2.734375 0.164062 2.296875 -0.25 C 1.867188 -0.664062 1.65625 -1.257812 1.65625 -2.03125 Z M 1.65625 -2.03125 "/></g></g></g><g fill="#000000" fill-opacity="1"><g transform="translate(267.074717, 218.249986)"><g><path d="M 1.65625 -2.03125 C 1.65625 -2.820312 1.867188 -3.421875 2.296875 -3.828125 C 2.722656 -4.234375 3.34375 -4.4375 4.15625 -4.4375 C 4.9375 -4.4375 5.539062 -4.226562 5.96875 -3.8125 C 6.394531 -3.394531 6.609375 -2.800781 6.609375 -2.03125 C 6.609375 -1.28125 6.390625 -0.691406 5.953125 -0.265625 C 5.523438 0.160156 4.925781 0.375 4.15625 0.375 C 3.351562 0.375 2.734375 0.164062 2.296875 -0.25 C 1.867188 -0.664062 1.65625 -1.257812 1.65625 -2.03125 Z M 1.65625 -2.03125 "/></g></g></g><g fill="#000000" fill-opacity="1"><g transform="translate(275.34202, 218.249986)"><g><path d="M 1.65625 -2.03125 C 1.65625 -2.820312 1.867188 -3.421875 2.296875 -3.828125 C 2.722656 -4.234375 3.34375 -4.4375 4.15625 -4.4375 C 4.9375 -4.4375 5.539062 -4.226562 5.96875 -3.8125 C 6.394531 -3.394531 6.609375 -2.800781 6.609375 -2.03125 C 6.609375 -1.28125 6.390625 -0.691406 5.953125 -0.265625 C 5.523438 0.160156 4.925781 0.375 4.15625 0.375 C 3.351562 0.375 2.734375 0.164062 2.296875 -0.25 C 1.867188 -0.664062 1.65625 -1.257812 1.65625 -2.03125 Z M 1.65625 -2.03125 "/></g></g></g></svg>